<?xml version="1.0" encoding="UTF-8"?>
<svg version="1.1" xmlns="http://www.w3.org/2000/svg" width="512" height="512">
<path d="M0 0 C0.69455292 0.00304138 1.38910583 0.00608276 2.10470581 0.00921631 C35.13676524 0.22224391 64.37404383 13.60818604 87.78417969 36.91015625 C97.25990575 46.78359766 104.15601299 58.24952598 110.25 70.4375 C112.13484802 70.84043129 112.13484802 70.84043129 114.4140625 70.9296875 C115.28160156 70.99260986 116.14914062 71.05553223 117.04296875 71.12036133 C117.97753906 71.18376709 118.91210938 71.24717285 119.875 71.3125 C129.09509436 72.06966438 137.42844882 73.54419308 146.25 76.4375 C147.3328125 76.78554687 148.415625 77.13359375 149.53125 77.4921875 C162.50309581 82.05752158 173.86548417 89.51272928 184.25 98.4375 C184.93320312 98.98792969 185.61640625 99.53835937 186.3203125 100.10546875 C198.77791194 110.38909495 207.81571285 124.75412676 214.25 139.4375 C214.25 140.0975 214.25 140.7575 214.25 141.4375 C214.85247559 141.41655273 215.45495117 141.39560547 216.07568359 141.37402344 C236.36155653 140.76571675 253.08288359 143.2524357 271.25 152.4375 C272.30832031 152.97246094 273.36664063 153.50742187 274.45703125 154.05859375 C299.0011878 167.47263475 316.2052462 190.82674616 324.0625 217.375 C329.63759458 236.47815261 329.61917994 259.49757018 323.25 278.4375 C322.899375 279.5409375 322.54875 280.644375 322.1875 281.78125 C313.04232368 307.94661557 294.29081848 328.33605758 269.92578125 341.19140625 C255.91970808 347.93256813 241.40610282 351.75856526 225.8543396 351.70492554 C224.86871587 351.70945665 223.88309215 351.71398776 222.86760104 351.71865618 C219.59706914 351.7312176 216.32670554 351.72968517 213.05615234 351.72802734 C210.69790434 351.7340178 208.33965829 351.74082454 205.98141479 351.74838257 C199.59682027 351.76599831 193.21227942 351.77073612 186.82766294 351.77201414 C182.83185748 351.77343895 178.83606107 351.77758799 174.84025955 351.78300858 C161.59967674 351.80060152 148.35912621 351.80985064 135.11853163 351.80834763 C134.40636443 351.80826772 133.69419724 351.8081878 132.96044922 351.80810547 C131.89087575 351.80798283 131.89087575 351.80798283 130.79969473 351.80785771 C119.25613972 351.80704562 107.71271543 351.82616875 96.1691982 351.8543822 C84.28215816 351.88320317 72.39518169 351.89691742 60.50810587 351.89519465 C53.84822591 351.89453386 47.18846383 351.90028494 40.52860641 351.92155075 C34.25922944 351.94102427 27.9901403 351.9409954 21.72075272 351.92651749 C19.43159816 351.92443949 17.14242515 351.92906939 14.853302 351.9412384 C-1.06203733 352.02030368 -16.94274457 351.46996123 -31.25 343.625 C-31.90742188 343.28025635 -32.56484375 342.9355127 -33.2421875 342.58032227 C-38.53779813 339.72778299 -43.2218784 336.3996064 -47.75 332.4375 C-48.74 331.66019531 -48.74 331.66019531 -49.75 330.8671875 C-64.91415582 318.60554588 -75.14012485 298.62025029 -77.75 279.4375 C-79.39665322 259.98282091 -76.6560586 244.23957754 -68.75 226.4375 C-68.07622709 224.77369343 -67.40729885 223.10788332 -66.75 221.4375 C-67.53761719 220.86644531 -68.32523438 220.29539062 -69.13671875 219.70703125 C-96.98882727 199.13852326 -114.0351208 171.68681098 -119.75 137.4375 C-119.94916016 136.25994141 -119.94916016 136.25994141 -120.15234375 135.05859375 C-124.31092362 105.03706507 -115.76713565 73.6302431 -98 49.29296875 C-94.45648924 44.79590908 -90.70953742 40.5703972 -86.75 36.4375 C-86.06550781 35.68984375 -85.38101563 34.9421875 -84.67578125 34.171875 C-72.43287523 21.22743463 -56.54322236 11.83830705 -39.75 6.125 C-38.73824707 5.77937012 -38.73824707 5.77937012 -37.70605469 5.42675781 C-25.24759203 1.44542836 -13.04004642 -0.12209524 0 0 Z M-60.75 54.4375 C-61.45511719 55.06140625 -62.16023438 55.6853125 -62.88671875 56.328125 C-78.37489087 70.81215237 -88.84678444 93.21193425 -89.75 114.4375 C-89.8015625 115.28828125 -89.853125 116.1390625 -89.90625 117.015625 C-90.71214747 141.59549773 -81.32788068 164.40773486 -64.75 182.4375 C-58.5997954 188.57881702 -52.18239891 193.92300584 -44.75 198.4375 C-42.29186687 197.24827849 -39.91792276 195.97040439 -37.53515625 194.6328125 C-26.39753877 188.39766984 -15.36951795 184.60247373 -2.75 182.4375 C-2.62044922 180.71080078 -2.62044922 180.71080078 -2.48828125 178.94921875 C0.28107748 146.03820148 13.11205829 118.19597425 38.25 96.4375 C49.91718384 87.04326321 63.57671207 81.25932963 77.25 75.4375 C64.00283873 53.76388999 45.23933888 39.19983531 20.35424805 32.94458008 C-8.90741104 26.15038586 -38.64374086 34.29544805 -60.75 54.4375 Z M50.5625 126.625 C34.97111289 142.83891074 27.7966523 163.69945407 28.1875 185.875 C28.22770264 186.97658447 28.26790527 188.07816895 28.30932617 189.21313477 C28.49734333 195.72267367 28.31113789 201.54975997 25.25 207.4375 C21.04680588 211.34744802 16.8560704 212.26068516 11.25 212.4375 C9.91661825 212.37604152 8.58328657 212.31348984 7.25 212.25 C-7.21754613 212.12484822 -21.30103224 218.45704468 -31.6875 228.25 C-43.24343441 240.50629407 -47.27839296 254.15025703 -47.02734375 270.52734375 C-46.7794102 276.95017942 -45.2732085 282.53683059 -42.75 288.4375 C-42.14865234 289.84902344 -42.14865234 289.84902344 -41.53515625 291.2890625 C-35.34713524 304.02383039 -24.1177294 313.60286036 -10.8984375 318.4921875 C-0.51931863 321.56206773 10.07992477 321.58454061 20.82519531 321.56689453 C22.16947507 321.5682216 23.51375446 321.56996993 24.85803318 321.57210159 C28.50166157 321.57656583 32.14526225 321.57475779 35.78889108 321.57167387 C38.87774806 321.56983698 41.96659861 321.57163322 45.05545527 321.57346261 C55.01382195 321.57932296 64.97216505 321.57333819 74.93052816 321.56463432 C77.49520576 321.56250398 80.05988335 321.560734 82.62456131 321.55909729 C106.47106941 321.54387138 130.31747343 321.50600907 154.16390324 321.44295311 C156.16189848 321.4377303 158.15989439 321.43276456 160.15789032 321.42781067 C173.0771727 321.39537097 185.99585896 321.34549107 198.91467285 321.22796631 C202.06385331 321.19948189 205.21289826 321.17937203 208.36218262 321.16705322 C212.59475814 321.14966803 216.82632482 321.10070867 221.05859375 321.046875 C222.21940964 321.04563629 223.38022552 321.04439758 224.57621765 321.04312134 C235.69854605 320.84114395 246.45940081 317.93553118 256.375 312.875 C257.36983398 312.37117798 257.36983398 312.37117798 258.38476562 311.85717773 C265.39040777 308.11583444 270.7695663 303.11483551 276.25 297.4375 C276.98734375 296.73109375 277.7246875 296.0246875 278.484375 295.296875 C291.12456147 282.46071665 296.57640049 264.07559415 296.75 246.5 C296.53709072 224.93129155 288.62983978 206.56927784 273.25 191.4375 C258.02157697 177.71518474 239.56261336 171.73453484 219.25 171.4375 C216.95132562 171.58794596 214.70988073 171.8456959 212.4296875 172.1640625 C209.82301745 172.49106412 207.2508211 172.6574914 204.625 172.75 C203.33722656 172.80607422 203.33722656 172.80607422 202.0234375 172.86328125 C198.10762767 172.26212171 195.13842035 171.12558478 192.25 168.4375 C190.29520816 165.07610311 189.04262466 161.53339456 187.75 157.875 C179.74790304 136.91874439 165.76705817 119.43426832 145.25 109.4375 C111.44545539 95.44813302 77.47596711 101.48707413 50.5625 126.625 Z " fill="#000000" transform="translate(184.75,125.5625)"/>
<path d="M0 0 C4.03449965 3.57603378 6.52930307 7.25623445 6.91015625 12.74609375 C6.56241216 17.7756607 5.34288309 21.76308568 1.75 25.4375 C-2.03437679 28.08918919 -6.02519303 30.32089076 -10.0625 32.5625 C-11.13048828 33.16964844 -12.19847656 33.77679688 -13.29882812 34.40234375 C-15.36380166 35.57466639 -17.43346978 36.73876797 -19.50830078 37.89355469 C-21.76181974 39.16258887 -23.96361909 40.4850591 -26.16796875 41.8359375 C-30.91616431 44.30331415 -35.03104089 44.19731905 -40.25 43.4375 C-43.98099696 42.17355719 -46.55476364 40.38956485 -48.91015625 37.1640625 C-50.43982204 34.05121492 -50.68305479 31.95392946 -50.6875 28.5 C-50.70683594 27.50097656 -50.72617187 26.50195312 -50.74609375 25.47265625 C-50.11222737 21.59459184 -49.03586757 19.14911152 -46.25 16.4375 C-42.4595534 13.79405853 -38.47517119 11.55431147 -34.4375 9.3125 C-33.36951172 8.70535156 -32.30152344 8.09820312 -31.20117188 7.47265625 C-29.13953992 6.30223069 -27.07448834 5.13780243 -25.00561523 3.98022461 C-22.69764146 2.688111 -20.40068763 1.37990056 -18.109375 0.05859375 C-11.94418118 -3.43670056 -6.33788021 -3.04705779 0 0 Z " fill="#000000" transform="translate(50.25,315.5625)"/>
<path d="M0 0 C4.1730967 1.57264049 7.83965613 3.72102375 11.625 6.0625 C12.5840625 6.62388672 13.543125 7.18527344 14.53125 7.76367188 C33.92028277 19.25784781 33.92028277 19.25784781 35.734375 25.95703125 C36.38636038 30.97156587 35.64733964 34.77467853 33.25 39.3125 C30.40455259 42.71122885 27.88304041 44.32001318 23.75 45.8125 C14.88572624 46.4168823 7.85745088 42.08184732 0.48730469 37.71508789 C-1.25259358 36.68596594 -3.00389406 35.67883025 -4.7578125 34.67382812 C-11.30282657 30.853384 -16.72320187 27.4151972 -21 21 C-21.68923878 15.44601777 -21.7242151 10.52889855 -19.3125 5.4375 C-13.61265284 -0.570447 -7.96031682 -1.18765708 0 0 Z " fill="#000000" transform="translate(21,133)"/>
<path d="M0 0 C4.004793 2.0023965 6.6587028 4.17998877 9 8 C10.63968743 12.91906228 10.55903081 17.25302871 9 22.125 C3.95927838 29.37103733 -4.91900254 33.48870177 -12.4375 37.75 C-13.42298828 38.32621094 -14.40847656 38.90242188 -15.42382812 39.49609375 C-28.35318026 46.84757429 -28.35318026 46.84757429 -35.25537109 45.58862305 C-40.40771104 44.06814672 -42.96600673 41.32114194 -46 37 C-47.86086863 33.27826273 -47.42624401 29.06185464 -47 25 C-43.00022039 15.95702001 -31.29165519 11.33121864 -23.0625 6.6875 C-22.11826172 6.15060547 -21.17402344 5.61371094 -20.20117188 5.06054688 C-12.96660094 0.95387919 -8.50258814 -0.87667929 0 0 Z " fill="#000000" transform="translate(360,133)"/>
<path d="M0 0 C4.7344316 1.91391916 7.72684393 5.45368786 10 10 C10.13587125 12.90764482 10.21277951 15.79009045 10.23828125 18.69921875 C10.246353 19.56762894 10.25442474 20.43603912 10.26274109 21.33076477 C10.27658651 23.17255658 10.28730661 25.01437409 10.29516602 26.85620117 C10.31232671 29.65919479 10.35620146 32.46099279 10.40039062 35.26367188 C10.41052233 37.05467884 10.41903694 38.84569583 10.42578125 40.63671875 C10.44328934 41.46926682 10.46079742 42.30181488 10.47883606 43.15959167 C10.45756702 48.93089537 9.30822687 52.2464573 6 57 C1.98499315 60.44143444 -2.81009237 61.28544492 -8 61 C-13.30666409 59.42108058 -17.04063679 56.73498114 -20 52 C-21.36282367 48.12448804 -21.1978472 44.07556698 -21.23828125 40.015625 C-21.246353 39.24120056 -21.25442474 38.46677612 -21.26274109 37.66888428 C-21.27654712 36.03155736 -21.28728478 34.39420209 -21.29516602 32.75683594 C-21.30667308 31.09268686 -21.32710492 29.42857432 -21.35668945 27.76464844 C-21.39962021 25.34805467 -21.41556971 22.93255402 -21.42578125 20.515625 C-21.44328934 19.78200745 -21.46079742 19.04838989 -21.47883606 18.2925415 C-21.45605546 12.78551772 -20.02350052 8.61517743 -17 4 C-12.01192931 -0.86641043 -6.60486227 -0.82813258 0 0 Z " fill="#000000" transform="translate(190,35)"/>
</svg>
